<?xml version="1.0" standalone="no"?>
<!DOCTYPE svg PUBLIC "-//W3C//DTD SVG 20010904//EN"
 "http://www.w3.org/TR/2001/REC-SVG-20010904/DTD/svg10.dtd">
<svg version="1.0" xmlns="http://www.w3.org/2000/svg"
 width="275.000000pt" height="183.000000pt" viewBox="0 0 275.000000 183.000000"
 preserveAspectRatio="xMidYMid meet">
<metadata>
Created by potrace 1.10, written by Peter Selinger 2001-2011
</metadata>
<g transform="translate(0.000000,183.000000) scale(0.100000,-0.100000)"
fill="#000000" stroke="none">
<path d="M504 1248 c-55 -18 -126 -80 -153 -133 -35 -66 -36 -179 -4 -240 88
-165 315 -200 435 -67 40 45 58 93 58 162 l0 45 -125 0 -125 0 0 -38 0 -38 90
3 c50 2 90 0 90 -4 0 -38 -47 -100 -93 -125 -63 -32 -182 -9 -228 43 -56 64
-67 173 -23 240 57 89 166 119 256 71 l46 -25 21 22 c12 12 21 25 21 29 0 3
-21 18 -46 33 -36 21 -62 28 -118 30 -39 2 -85 -2 -102 -8z m-90 -126 c-26
-16 -65 -204 -41 -199 5 1 12 -5 14 -13 4 -13 3 -13 -6 0 -8 11 -11 11 -11 2
0 -7 7 -15 15 -18 8 -4 15 -11 15 -16 0 -6 12 -21 28 -34 15 -14 21 -24 13
-24 -22 0 -80 71 -86 104 -4 25 -2 98 4 152 2 16 40 54 54 54 9 0 9 -2 1 -8z
m389 -146 c19 -15 24 -52 5 -40 -6 4 -8 3 -5 -3 4 -6 0 -24 -8 -39 l-16 -29 6
36 c6 31 3 39 -19 57 -27 20 -25 24 14 31 3 0 13 -6 23 -13z"/>
<path d="M2008 985 l3 -255 34 0 35 0 0 255 0 255 -37 0 -38 0 3 -255z"/>
<path d="M970 1048 c-62 -32 -90 -77 -90 -145 0 -95 40 -149 128 -172 77 -21
168 23 198 96 34 81 0 181 -75 220 -56 29 -105 29 -161 1z m139 -69 c51 -48
51 -120 0 -163 -70 -59 -159 -8 -159 89 0 79 103 126 159 74z"/>
<path d="M1363 1059 c-42 -12 -100 -81 -108 -129 -3 -21 -2 -56 4 -78 22 -81
81 -125 168 -125 183 0 235 248 69 324 -44 20 -83 22 -133 8z m-34 -76 c-13
-16 -27 -32 -31 -37 -5 -6 -8 -6 -8 1 0 15 40 63 52 63 7 0 1 -12 -13 -27z
m159 -6 c47 -50 45 -128 -4 -166 -52 -41 -123 -20 -150 45 -18 42 -10 80 24
117 34 36 98 38 130 4z m58 -2 c21 -32 22 -111 2 -150 -9 -16 -31 -38 -50 -48
l-33 -19 37 34 c58 51 67 137 20 191 -9 10 -11 17 -4 17 6 0 19 -11 28 -25z
m-254 -93 c-2 -7 1 -19 8 -27 7 -9 10 -18 6 -22 -11 -12 -18 5 -22 54 -3 33
-2 42 4 28 5 -11 7 -26 4 -33z"/>
<path d="M1719 1047 c-137 -73 -110 -276 42 -317 33 -9 46 -8 77 7 20 10 37
25 37 34 0 9 5 23 11 30 7 8 15 24 18 37 4 12 12 20 17 17 5 -4 9 19 8 52 0
34 -3 51 -8 40 -6 -15 -9 -12 -24 18 -21 44 -21 51 -1 59 35 13 45 -18 43
-139 -1 -63 -5 -118 -10 -121 -5 -3 -9 -17 -10 -32 -1 -25 -2 -24 -12 8 l-10
35 -7 -40 c-9 -58 -25 -82 -63 -94 -41 -14 -76 -3 -103 31 -18 23 -21 24 -52
11 -26 -11 -31 -17 -23 -31 41 -76 161 -107 231 -59 72 49 75 57 78 273 l4
194 -36 0 c-25 0 -36 -4 -36 -15 0 -12 -6 -11 -32 5 -43 26 -85 25 -139 -3z
m145 -78 c38 -45 37 -110 -3 -150 -37 -37 -79 -38 -120 -3 -75 63 -36 184 60
184 29 0 43 -6 63 -31z"/>
<path d="M2201 1048 c-56 -30 -85 -83 -85 -153 0 -147 161 -221 281 -129 l36
27 -28 23 -29 23 -29 -25 c-38 -32 -87 -32 -124 0 -15 13 -26 26 -23 29 3 3
54 25 115 50 60 25 111 49 112 54 5 14 -38 73 -68 96 -42 31 -106 33 -158 5z
m129 -63 c7 -9 11 -17 9 -19 -10 -9 -152 -66 -156 -62 -8 8 26 74 44 85 27 16
89 13 103 -4z m-143 -97 c9 -7 9 -16 1 -34 -16 -34 -32 -25 -36 20 -3 38 1 40
35 14z"/>
</g>
</svg>
